<?xml version="1.0" encoding="UTF-8" standalone="no"?>
<svg version="1.0" xmlns="http://www.w3.org/2000/svg"
   width="512pt" height="512pt" viewBox="0 0 512 512"
   preserveAspectRatio="xMidYMid meet">
   <style><![CDATA[ @media (prefers-color-scheme: dark) { .a { fill: #f0f0f0 } .b { fill: #000000; } ]]></style>
   <rect width="512" height="512" class="b" fill="#FFFFFF" />
   <g transform="translate(0,512) scale(0.1,-0.1)" class="a"
      fill="#000000" stroke="none">
      <path
         d="M602 3805 c-109 -24 -179 -77 -225 -170 -46 -93 -58 -180 -67 -470
-9 -273 -19 -373 -46 -456 -21 -66 -83 -119 -138 -119 -21 0 -26 -5 -26 -25 0
-19 7 -26 27 -31 80 -17 110 -44 139 -126 25 -73 35 -173 44 -453 9 -302 23
-394 73 -488 53 -101 135 -150 277 -166 88 -10 104 -6 98 25 -2 14 -16 21 -51
26 -126 18 -143 70 -157 478 -9 293 -21 368 -75 485 -50 111 -133 185 -260
236 -21 8 -25 13 -15 16 55 18 142 72 183 111 121 118 167 284 167 612 0 80 5
186 10 235 19 162 49 217 129 231 64 10 71 14 71 40 0 22 -4 24 -47 23 -27 0
-77 -7 -111 -14z" />
      <path
         d="M4372 3794 c3 -26 8 -30 46 -35 23 -3 55 -14 70 -25 63 -47 77 -121
91 -494 7 -172 15 -264 27 -310 47 -179 132 -285 277 -344 l55 -22 -65 -29
c-82 -36 -170 -116 -211 -192 -61 -115 -72 -181 -83 -473 -10 -285 -27 -419
-57 -459 -24 -33 -78 -61 -119 -61 -30 0 -33 -3 -33 -29 l0 -29 63 5 c218 16
323 113 361 333 8 47 17 186 21 310 7 251 18 380 40 457 20 69 67 118 129 134
39 10 47 15 44 32 -2 15 -13 23 -37 28 -54 11 -81 30 -108 77 -41 70 -52 148
-63 437 -11 295 -21 397 -50 480 -51 148 -146 216 -328 232 l-74 6 4 -29z" />
      <path
         d="M3265 3644 c-220 -46 -423 -211 -534 -433 -69 -138 -98 -247 -111
-421 -26 -332 53 -612 224 -797 150 -162 354 -243 615 -243 170 0 244 23 407
130 42 28 85 50 95 50 21 0 45 -32 53 -72 3 -16 8 -40 11 -54 5 -21 11 -25 33
-22 l27 3 5 335 c4 238 9 341 17 356 13 22 60 44 94 44 14 0 19 7 19 28 l0 27
-322 -2 -323 -2 0 -23 c0 -21 6 -24 74 -31 95 -10 148 -37 168 -85 18 -41 31
-353 19 -437 -10 -62 -49 -104 -136 -144 -209 -97 -500 -38 -639 128 -111 133
-167 331 -178 636 -26 698 265 1092 721 975 226 -58 346 -194 399 -450 l23
-115 32 -3 32 -3 0 193 c0 106 3 244 7 306 l6 114 -33 -4 c-32 -3 -34 -5 -46
-66 -14 -68 -27 -92 -51 -92 -8 0 -48 23 -89 51 -97 65 -204 116 -273 129 -76
14 -264 11 -346 -6z" />
      <path
         d="M1010 3599 c0 -24 4 -27 55 -32 66 -7 102 -23 129 -60 21 -28 21 -33
21 -801 0 -731 -1 -773 -18 -800 -22 -33 -64 -52 -135 -62 -48 -6 -52 -9 -52
-33 l0 -26 335 0 335 0 0 26 c0 24 -4 27 -56 33 -87 10 -118 27 -137 75 -15
36 -17 91 -17 416 l0 375 23 0 c48 0 101 -23 144 -63 54 -50 494 -708 501
-749 5 -31 -14 -44 -77 -54 -36 -6 -41 -10 -41 -33 l0 -26 292 2 293 2 3 25
c3 21 -2 27 -25 32 -52 13 -118 52 -160 96 -43 45 -643 883 -643 898 0 15 421
550 476 606 55 56 124 96 198 115 40 10 46 15 46 38 l0 26 -260 0 -260 0 0
-27 c0 -24 4 -28 30 -28 41 0 108 -28 120 -51 32 -59 -28 -171 -221 -414 -176
-222 -199 -248 -258 -282 -38 -23 -133 -52 -168 -53 -20 0 -18 678 1 725 18
42 58 63 136 72 56 5 60 7 60 32 l0 26 -335 0 -335 0 0 -26z" />
   </g>
</svg>